{"title":"Straight Outta Compton 2015 CAM XviD-INFERNO","uid":12240744,"size":1758324165,"categoryP":"video","categoryS":"movies","magnet":"?xt=urn:btih:ac1e673b307e45c4858a2d7a4da7bee65ec510ea&amp;dn=Straight+Outta+Compton+2015+CAM+XviD-INFERNO&amp;tr=udp%3A%2F%2Ftracker.openbittorrent.com%3A80&amp;tr=udp%3A%2F%2Fopen.demonii.com%3A1337&amp;tr=udp%3A%2F%2Ftracker.coppersurfer.tk%3A6969&amp;tr=udp%3A%2F%2Fexodus.desync.com%3A6969","seeders":0,"leechers":0,"uploader":"TvTeam","files":4,"time":1439796523,"description":"------------------------------------------------------------------------\n\n &lt;a href=&quot; https://www.torrenting.com&quot; rel=&quot;nofollow&quot; target=&quot;_NEW&quot;&gt; https://www.torrenting.com&lt;/a&gt;\n\nSign up is OPEN - for time being. Come and have fun\n\n.......................................................................................................................[IMG]http://lookpic.com/O/i2/1398/Dwe2yc4n.jpeg[/IMG]\n\n[IMG]http://lookpic.com/O/i2/250/JiVqLgvD.jpeg[/IMG]\n\nSource: MRG...THANKS\n &lt;a href=&quot;\nhttp://www.imdb.com/title/tt1398426/&quot; rel=&quot;nofollow&quot; target=&quot;_NEW&quot;&gt;\nhttp://www.imdb.com/title/tt1398426/&lt;/a&gt;\n\nFormat                           : AVI\nFormat/Info                      : Audio Video Interleave\nFile size                        : 1.62 GiB\nDuration                         : 2h 21mn\nOverall bit rate                 : 1 637 Kbps\nWriting library                  : VirtualDub build 35491/release\n\nVideo\nID                               : 0\nFormat                           : MPEG-4 Visual\nFormat profile                   : Advanced Simple@L5\nFormat settings, BVOP            : Yes\nFormat settings, QPel            : No\nFormat settings, GMC             : No warppoints\nFormat settings, Matrix          : Default (H.263)\nMuxing mode                      : Packed bitstream\nCodec ID                         : XVID\nCodec ID/Hint                    : XviD\nDuration                         : 2h 21mn\nBit rate                         : 1 499 Kbps\nWidth                            : 720 pixels\nHeight                           : 288 pixels\nDisplay aspect ratio             : 2.500\nFrame rate                       : 25.000 fps\nColor space                      : YUV\nChroma subsampling               : 4:2:0\nBit depth                        : 8 bits\nScan type                        : Progressive\nBits/(Pixel*Frame)               : 0.289\nStream size                      : 1.48 GiB (92%)\nWriting library                  : XviD 1.2.1 (UTC 2008-12-04)\n\nAudio\nID                               : 1\nFormat                           : MPEG Audio\nFormat version                   : Version 1\nFormat profile                   : Layer 3\nMode                             : Joint stereo\nMode extension                   : MS Stereo\nCodec ID                         : 55\nCodec ID/Hint                    : MP3\nDuration                         : 2h 21mn\nBit rate mode                    : Constant\nBit rate                         : 128 Kbps\nChannel(s)                       : 2 channels\nSampling rate                    : 44.1 KHz\nStream size                      : 130 MiB (8%)\nAlignment                        : Split accross interleaves\nInterleave, duration             : 40 ms (1.00 video frame)\nInterleave, preload duration     : 500 ms\n\nWORKDONE:\n\nAdj. perspective, contrast, levels, RGB's, msu denoiser, sharpen. Audio a little here and there to what I thought sound better.\n\n[IMG]http://lookpic.com/O/i2/765/Oee76xM.jpeg[/IMG]\n\n[IMG]http://lookpic.com/O/i2/1916/dftdPbaL.png[/IMG]\n[IMG]http://lookpic.com/O/i2/1591/wl0pOGai.png[/IMG]\n[IMG]http://lookpic.com/O/i2/539/5lqbPfZU.png[/IMG]\n[IMG]http://lookpic.com/O/i2/34/sSo49kga.png[/IMG]\n[IMG]http://lookpic.com/O/i2/1818/XoRzkRZ5.png[/IMG]\n[IMG]http://lookpic.com/O/i2/1831/5l2vjgd7.png[/IMG]\n\nGreets go out too:\n\nTHC, Hive-CM8, BHRG, and all who put work in\n\n[IMG]http://www.myimg.us/images/02.20.12/24265.gif[/IMG]","torrent":{"xt":"urn:btih:ac1e673b307e45c4858a2d7a4da7bee65ec510ea","amp;dn":"Straight+Outta+Compton+2015+CAM+XviD-INFERNO","amp;tr":["udp%3A%2F%2Ftracker.openbittorrent.com%3A80","udp%3A%2F%2Fopen.demonii.com%3A1337","udp%3A%2F%2Ftracker.coppersurfer.tk%3A6969","udp%3A%2F%2Fexodus.desync.com%3A6969"],"infoHash":"ac1e673b307e45c4858a2d7a4da7bee65ec510ea","infoHashBuffer":{"type":"Buffer","data":[172,30,103,59,48,126,69,196,133,138,45,122,77,167,190,230,94,197,16,234]},"announce":[],"urlList":[]}}